<svg id="Layer_2" data-name="Layer 2" xmlns="http://www.w3.org/2000/svg" viewBox="0 0 500 489.3"><defs><style>.cls-1{fill:#f5f5f5;}</style></defs><path class="cls-1" d="M250,5.35c-138.07,0-250,111.93-250,250,0,112.84,74.77,208.21,177.46,239.3a15.16,15.16,0,0,0,7-4.53,14.2,14.2,0,0,0,2.79-5.39,4.32,4.32,0,0,0,.16-1.19V436.85c-10.6,3.13-26.41,5.58-43.85.45-6.66-1.95-20.77-6.1-31.31-18.53-8.14-9.61-7.68-16.53-16.78-29.8a93.28,93.28,0,0,0-15.32-17.24,44.37,44.37,0,0,0-7-5.13c-4.19-2.42-6.72-5.89-6.24-8.5.66-3.57,7.28-7.15,15.87-5a56.54,56.54,0,0,1,19,8.11c15.17,10.19,15.07,21.43,29.24,32.48,2.94,2.29,14.46,11,30.34,11.77a50.07,50.07,0,0,0,26.24-6.34,50.06,50.06,0,0,1,13.93-30.79A110.39,110.39,0,0,1,91.34,258V235.35a109.88,109.88,0,0,1,23.48-68,95,95,0,0,1,4.67-56.94,2.45,2.45,0,0,1,2.19-1.53,92.54,92.54,0,0,1,58.45,18.25A111.88,111.88,0,0,1,199.39,125q24.62-.56,50.14-.57t50.11.57a111.82,111.82,0,0,1,19.86,2.25,92.52,92.52,0,0,1,58.62-18.38,2.45,2.45,0,0,1,2.19,1.53,95,95,0,0,1,4.49,57.7,109.86,109.86,0,0,1,22.88,67.27V258A110.38,110.38,0,0,1,298.35,368.36a50,50,0,0,1,14.11,34.88v51.88a51.09,51.09,0,0,1-.44,6.58v19.53a13.13,13.13,0,0,0,7.55,12.26,4.36,4.36,0,0,0,1.88.41,4.46,4.46,0,0,1,2,.48C425.67,463,500,367.86,500,255.35,500,117.28,388.07,5.35,250,5.35Z" transform="translate(0 -5.35)"/></svg>